<?xml version="1.0" encoding="UTF-8"?>
<!DOCTYPE svg PUBLIC "-//W3C//DTD SVG 1.1//EN" "http://www.w3.org/Graphics/SVG/1.1/DTD/svg11.dtd">
<!-- Creator: CorelDRAW 2020 (64-Bit) -->
<svg xmlns="http://www.w3.org/2000/svg" xml:space="preserve" width="5.3337mm" height="5.3337mm" version="1.1" style="shape-rendering:geometricPrecision; text-rendering:geometricPrecision; image-rendering:optimizeQuality; fill-rule:evenodd; clip-rule:evenodd"
viewBox="0 0 6.3 6.3"
 xmlns:xlink="http://www.w3.org/1999/xlink"
 xmlns:xodm="http://www.corel.com/coreldraw/odm/2003">
 <defs>
  <style type="text/css">
   <![CDATA[
    .str0 {stroke:#FEFEFE;stroke-width:0.24;stroke-miterlimit:22.9256}
    .fil0 {fill:none}
    .fil1 {fill:#FEFEFE;fill-rule:nonzero}
   ]]>
  </style>
 </defs>
 <g id="Слой_x0020_1">
  <metadata id="CorelCorpID_0Corel-Layer"/>
  <rect class="fil0 str0" x="0.12" y="0.12" width="6.06" height="6.06"/>
  <path class="fil1" d="M0.8 3.7c0,-0.54 0,-1.08 0,-1.61 0,-0.3 0.26,-0.54 0.58,-0.54 1.18,0 2.36,0 3.54,0 0.32,0 0.58,0.24 0.58,0.54 0,0.54 0,1.08 0,1.61 0,0.3 -0.26,0.54 -0.58,0.54 -0.71,0 -1.42,0 -2.12,0 0.01,0.37 0.03,0.74 0.04,1.11 -0.37,-0.37 -0.73,-0.74 -1.1,-1.11 -0.12,0 -0.24,0 -0.36,0 -0.32,0 -0.58,-0.24 -0.58,-0.54z"/>
 </g>
</svg>
