<?xml version="1.0" encoding="UTF-8"?>
<!DOCTYPE svg PUBLIC "-//W3C//DTD SVG 1.1//EN" "http://www.w3.org/Graphics/SVG/1.1/DTD/svg11.dtd">
<!-- Creator: CorelDRAW 2020 (64-Bit) -->
<svg xmlns="http://www.w3.org/2000/svg" xml:space="preserve" width="6.4297mm" height="6.4298mm" version="1.1" style="shape-rendering:geometricPrecision; text-rendering:geometricPrecision; image-rendering:optimizeQuality; fill-rule:evenodd; clip-rule:evenodd"
viewBox="0 0 14.51 14.51"
 xmlns:xlink="http://www.w3.org/1999/xlink"
 xmlns:xodm="http://www.corel.com/coreldraw/odm/2003">
 <defs>
  <style type="text/css">
   <![CDATA[
    .fil0 {fill:#FEFEFE}
    .fil2 {fill:#097A68}
    .fil1 {fill:#097A68;fill-rule:nonzero}
   ]]>
  </style>
 </defs>
 <g id="Слой_x0020_1">
  <metadata id="CorelCorpID_0Corel-Layer"/>
  <g id="_1140440624">
   <rect class="fil0" x="0" y="0" width="14.51" height="14.51"/>
   <g>
    <path class="fil1" d="M4.27 4.78c0.17,-0.17 0.35,-0.29 0.55,-0.37 0.2,-0.08 0.41,-0.12 0.63,-0.12 0.48,0 0.9,0.18 1.23,0.55 0.34,0.37 0.51,0.83 0.51,1.41 0,0.55 -0.17,1.01 -0.53,1.38 -0.35,0.37 -0.76,0.56 -1.25,0.56 -0.21,0 -0.41,-0.04 -0.6,-0.11 -0.18,-0.08 -0.37,-0.2 -0.55,-0.37l0 3.32 -0.93 -1.28 0 -6.24 0.93 1.29zm5.96 0c-0.17,-0.17 -0.35,-0.29 -0.55,-0.37 -0.2,-0.08 -0.41,-0.12 -0.63,-0.12 -0.48,0 -0.9,0.18 -1.23,0.55 -0.34,0.37 -0.51,0.83 -0.51,1.41 0,0.55 0.17,1.01 0.53,1.38 0.35,0.37 0.76,0.56 1.25,0.56 0.21,0 0.41,-0.04 0.6,-0.11 0.18,-0.08 0.37,-0.2 0.55,-0.37l0 3.32 0.93 -1.29 0 -6.23 -0.93 1.29zm-0.98 0.35c0.29,0 0.54,0.1 0.73,0.3 0.19,0.2 0.29,0.46 0.29,0.78 0,0.33 -0.1,0.6 -0.29,0.8 -0.19,0.2 -0.44,0.31 -0.73,0.31 -0.28,0 -0.52,-0.1 -0.72,-0.31 -0.19,-0.21 -0.29,-0.47 -0.29,-0.79 0,-0.32 0.1,-0.58 0.29,-0.78 0.19,-0.2 0.43,-0.31 0.72,-0.31zm-4.01 0c-0.29,0 -0.54,0.1 -0.73,0.3 -0.19,0.2 -0.29,0.46 -0.29,0.78 0,0.33 0.1,0.6 0.29,0.8 0.19,0.2 0.44,0.31 0.73,0.31 0.28,0 0.52,-0.1 0.72,-0.31 0.19,-0.21 0.29,-0.47 0.29,-0.79 0,-0.32 -0.1,-0.58 -0.29,-0.78 -0.19,-0.2 -0.43,-0.31 -0.72,-0.31z"/>
    <polygon class="fil2" points="7.3,9.03 7.66,8.55 8.01,8.07 7.3,8.07 6.6,8.07 6.95,8.55 "/>
   </g>
  </g>
 </g>
</svg>
